<svg xmlns="http://www.w3.org/2000/svg" width="80" height="80" viewBox="0 0 80 80" xmlns:xlink="http://www.w3.org/1999/xlink">
  <defs>
    <polygon id="a" points="34 .9 34 34.7 .2 34.7 .2 .9 34 .9"/>
  </defs>
  <g fill="none" fill-rule="evenodd" transform="translate(18 13)">
    <path fill="#000000" d="M0,52 L40,52 L40,0 L0,0 L0,52 Z M3,49 L37,49 L37,3 L3,3 L3,49 Z"/>
    <path stroke="#000000" stroke-width="3" d="M1.5 22.5L37.5 22.5M9.5 38.5L9.5 43.5M18.5 38.5L18.5 43.5M9.5 29.5L9.5 34.5M18.5 29.5L18.5 34.5"/>
    <path stroke="#FFCD05" stroke-width="3" d="M7.5 15.5L31.5 15.5M7.5 8.5L19.5 8.5"/>
    <g transform="translate(22 8)">
      <mask id="b" fill="white">
        <use xlink:href="#a"/>
      </mask>
      <path fill="#FFFFFF" d="M17.1001,0.9004 C26.4331,0.9004 34.0001,8.4664 34.0001,17.7994 C34.0001,27.1334 26.4331,34.7004 17.1001,34.7004 C7.7671,34.7004 0.2001,27.1334 0.2001,17.7994 C0.2001,8.4664 7.7671,0.9004 17.1001,0.9004" mask="url(#b)"/>
      <path stroke="#FFCD05" stroke-width="3" d="M16.8999 4.5996C24.0799 4.5996 29.8999 10.4196 29.8999 17.5996 29.8999 24.7796 24.0799 30.5996 16.8999 30.5996 9.7199 30.5996 3.8999 24.7796 3.8999 17.5996 3.8999 10.4196 9.7199 4.5996 16.8999 4.5996zM21.5 11.5L12.5 22.5"/>
      <path fill="#FFCD05" d="M13 11C14.104 11 15 11.896 15 13 15 14.104 14.104 15 13 15 11.896 15 11 14.104 11 13 11 11.896 11.896 11 13 11M21 19C22.104 19 23 19.896 23 21 23 22.104 22.104 23 21 23 19.896 23 19 22.104 19 21 19 19.896 19.896 19 21 19"/>
    </g>
  </g>
</svg>
