<svg xmlns="http://www.w3.org/2000/svg" width="80" height="80" viewBox="0 0 80 80" xmlns:xlink="http://www.w3.org/1999/xlink">
  <defs>
    <path id="a" d="M3,0.3 L5.6,0.3 C7.801,0.3 9.7,2.1 9.7,4.4 L9.7,5.4 C9.7,7.7 7.801,9.6 5.5,9.6 L3,9.6 L2.7,9.6 L2.7,11 L7.801,11 L7.801,13.7 L2.7,13.7 L2.7,15.5 L0,15.5 L0,6.6 L0,3.3 L0,3.1 C0.1,1.5 1.4,0.3 3,0.3 Z M2.7,6.5 C2.7,6.7 2.8,6.8 3,6.8 L5.5,6.8 C6.3,6.8 7.001,6.1 7.001,5.299 L7.001,4.3 C7.001,3.5 6.4,2.9 5.6,2.9 L3,2.9 C2.8,2.9 2.7,3 2.7,3.2 L2.7,6.5 Z"/>
  </defs>
  <g fill="none" fill-rule="evenodd" transform="translate(12 5)">
    <g transform="translate(0 .1)">
      <path stroke="#121212" stroke-width="3" d="M44.6997 50.5L8.3997 50.5C4.0997 50.5.5007 47 .5007 42.6L.5007 20.3C.5007 16 4.0007 12.4 8.3997 12.4L44.6997 12.4C49.0007 12.4 52.5997 15.9 52.5997 20.3L52.5997 42.6C52.5997 47 49.0997 50.5 44.6997 50.5zM.6001 59.5L52.6001 59.5"/>
      <path fill="#FFFFFF" d="M20.1001,0.9004 C31.1461,0.9004 40.1001,9.8544 40.1001,20.9004 C40.1001,31.9454 31.1461,40.9004 20.1001,40.9004 C9.0541,40.9004 0.1001,31.9454 0.1001,20.9004 C0.1001,9.8544 9.0541,0.9004 20.1001,0.9004" transform="translate(25)"/>
      <path stroke="#FFCD05" stroke-width="3" d="M29.5005,20.7002 C29.5005,22.8002 29.8995,24.9002 30.6995,26.7002 C31.6995,29.0002 29.0005,37.2002 29.0005,37.2002 C29.0005,37.2002 37.1995,34.0992 38.3005,34.5992 C40.3005,35.5992 42.6005,36.0992 45.0005,36.0992 C53.5005,36.0992 60.3995,29.2002 60.3995,20.7002 C60.3995,12.2002 53.5005,5.3002 45.0005,5.3002 C36.3995,5.3002 29.5005,12.2002 29.5005,20.7002 Z" stroke-linejoin="round"/>
      <path fill="#121212" d="M42.6997,16.2002 C42.6997,16.0002 42.8007,15.9002 43.0007,15.9002 L45.5997,15.9002 C46.3997,15.9002 47.0007,16.5002 47.0007,17.3002 L47.0007,18.3002 C47.0007,19.0992 46.3007,19.8002 45.5007,19.8002 L43.0007,19.8002 C42.8007,19.8002 42.6997,19.7002 42.6997,19.5002 L42.6997,16.2002 Z M42.6997,26.7002 L47.8007,26.7002 L47.8007,24.0002 L42.6997,24.0002 L42.6997,22.5992 L43.0007,22.5992 L45.5007,22.5992 C47.8007,22.5992 49.6997,20.7002 49.6997,18.4002 L49.6997,17.4002 C49.6997,15.0992 47.8007,13.3002 45.5997,13.3002 L43.0007,13.3002 C41.3997,13.3002 40.0997,14.5002 40.0007,16.0992 L40.0007,16.3002 L40.0007,19.5992 L40.0007,28.5002 L42.6997,28.5002 L42.6997,26.7002 Z"/>
    </g>
    <g transform="translate(40 13.1)">
      <mask id="b" fill="white">
        <use xlink:href="#a"/>
      </mask>
      <polygon fill="#121212" points="-7.2 22.5 16.8 22.5 16.8 -7 -7.2 -7" mask="url(#b)"/>
    </g>
  </g>
</svg>
