<svg xmlns="http://www.w3.org/2000/svg" width="80" height="80" viewBox="0 0 80 80" xmlns:xlink="http://www.w3.org/1999/xlink">
  <defs>
    <polygon id="a" points="34.5 .2 34.5 34 .7 34 .7 .2 34.5 .2"/>
  </defs>
  <g fill="none" fill-rule="evenodd" transform="translate(16 13)">
    <path stroke="#121212" stroke-width="3" d="M39,47.9034 L6.5,47.9034 C3.2,47.9034 0.5,45.2044 0.5,41.9034 L0.5,6.6034 C0.5,3.3034 3.2,0.6034 6.5,0.6034 L22.5,0.5044 L39,16.9034 L39,47.9034 Z"/>
    <g transform="translate(18 27.504)">
      <mask id="b" fill="white">
        <use xlink:href="#a"/>
      </mask>
      <path fill="#FFFFFF" d="M17.6001,0.2004 C26.9331,0.2004 34.5001,7.7664 34.5001,17.0994 C34.5001,26.4334 26.9331,34.0004 17.6001,34.0004 C8.2671,34.0004 0.7001,26.4334 0.7001,17.0994 C0.7001,7.7664 8.2671,0.2004 17.6001,0.2004" mask="url(#b)"/>
    </g>
    <path stroke="#FFCD05" stroke-width="3" d="M35.3999 31.4034C42.5799 31.4034 48.3999 37.2234 48.3999 44.4034 48.3999 51.5834 42.5799 57.4034 35.3999 57.4034 28.2199 57.4034 22.3999 51.5834 22.3999 44.4034 22.3999 37.2234 28.2199 31.4034 35.3999 31.4034zM28.7002 44.4034L42.7002 44.4034M35.3999 37.6036L35.3999 51.7046"/>
    <polyline stroke="#121212" stroke-width="3" points="19 7.804 19 20.304 32 20.304" stroke-linejoin="round"/>
  </g>
</svg>
