<svg xmlns="http://www.w3.org/2000/svg" width="80" height="80" viewBox="0 0 80 80">
  <g fill="none" fill-rule="evenodd" transform="translate(15 15)">
    <path stroke="#FFCD05" stroke-width="3" d="M5,30 L5,5.4 C5,2.7 6.9,0.5 9.2,0.5 L38.8,0.5 C41.1,0.5 43,2.7 43,5.4 L43,30 C43,32.7 5,32.7 5,30 Z"/>
    <polyline fill="#FFFFFF" points="0 18.5 51 18.5 51 33.5 0 33.5"/>
    <path fill="#FFFFFF" d="M38.7998,49.5 L9.1998,49.5 C6.8998,49.5 4.9998,47.6 4.9998,45.3 L4.9998,28.7 C4.9998,26.4 6.8998,24.5 9.1998,24.5 L38.7998,24.5 C41.0998,24.5 42.9998,26.4 42.9998,28.7 L42.9998,45.3 C42.9998,47.6 41.0998,49.5 38.7998,49.5"/>
    <path stroke="#121212" stroke-width="3" d="M38.7998,49.5 L9.1998,49.5 C6.8998,49.5 4.9998,47.6 4.9998,45.3 L4.9998,28.7 C4.9998,26.4 6.8998,24.5 9.1998,24.5 L38.7998,24.5 C41.0998,24.5 42.9998,26.4 42.9998,28.7 L42.9998,45.3 C42.9998,47.6 41.0998,49.5 38.7998,49.5 Z"/>
    <path stroke="#FFCD05" stroke-width="3" d="M24,6.5 L24,18.5"/>
    <path stroke="#121212" stroke-width="3" d="M24,30.5 L24,38.5"/>
    <polyline stroke="#121212" stroke-width="3" points="18 35.5 24 40.5 30 35.5" stroke-linejoin="round"/>
  </g>
</svg>
