<svg xmlns="http://www.w3.org/2000/svg" width="80" height="80" viewBox="0 0 80 80" xmlns:xlink="http://www.w3.org/1999/xlink">
  <defs>
    <path id="a" d="M3.7,0.2 L6.399,0.2 C8.8,0.2 10.701,2.1 10.701,4.5 L10.701,5.5 C10.701,7.9 8.701,9.9 6.3,9.9 L3.7,9.9 L3.4,9.9 L3.4,11.4 L8.6,11.4 L8.6,14.2 L3.4,14.2 L3.4,16.099 L0.6,16.099 L0.6,6.9 L0.6,3.4 L0.6,3.1 C0.701,1.5 2.1,0.2 3.7,0.2 Z M3.4,6.9 C3.4,7.099 3.501,7.2 3.7,7.2 L6.3,7.2 C7.2,7.2 7.9,6.5 7.9,5.6 L7.9,4.6 C7.9,3.8 7.2,3.1 6.399,3.1 L3.7,3.1 C3.501,3.1 3.4,3.201 3.4,3.4 L3.4,6.9 Z"/>
  </defs>
  <g fill="none" fill-rule="evenodd" transform="translate(12 12)">
    <g transform="translate(0 .8)">
      <path stroke="#FFCD05" stroke-width="3" d="M27.3997,0.7002 C42.2557,0.7002 54.2997,12.7432 54.2997,27.5992 C54.2997,42.4562 42.2557,54.5002 27.3997,54.5002 C12.5437,54.5002 0.5007,42.4562 0.5007,27.5992 C0.5007,12.7432 12.5437,0.7002 27.3997,0.7002 Z"/>
      <path fill="#121212" d="M25.3997,22.4004 C25.3997,22.2004 25.5007,22.0994 25.7007,22.0994 L28.3997,22.0994 C29.2007,22.0994 29.8997,22.7994 29.8997,23.5994 L29.8997,24.5994 C29.8997,25.5004 29.2007,26.2004 28.2997,26.2004 L25.7007,26.2004 C25.5007,26.2004 25.3997,26.0994 25.3997,25.9004 L25.3997,22.4004 Z M25.3997,33.2004 L30.5997,33.2004 L30.5997,30.4004 L25.3997,30.4004 L25.3997,28.9004 L25.7007,28.9004 L28.2997,28.9004 C30.7007,28.9004 32.7007,26.9004 32.7007,24.5004 L32.7007,23.5004 C32.7007,21.0994 30.7997,19.2004 28.3997,19.2004 L25.7007,19.2004 C24.0997,19.2004 22.7007,20.5004 22.5997,22.0994 L22.5997,22.4004 L22.5997,25.9004 L22.5997,35.0994 L25.3997,35.0994 L25.3997,33.2004 Z"/>
    </g>
    <g transform="translate(22 19.8)">
      <mask id="b" fill="white">
        <use xlink:href="#a"/>
      </mask>
      <polygon fill="#121212" points="-6.8 23.4 18 23.4 18 -7.1 -6.8 -7.1" mask="url(#b)"/>
    </g>
  </g>
</svg>
