<svg xmlns="http://www.w3.org/2000/svg" width="80" height="80" viewBox="0 0 80 80" xmlns:xlink="http://www.w3.org/1999/xlink">
  <defs>
    <polygon id="a" points="34.5 .2 34.5 34 .7 34 .7 .2 34.5 .2"/>
  </defs>
  <g fill="none" fill-rule="evenodd" transform="translate(19 13)">
    <path stroke="#121212" stroke-width="3" d="M39,47.9996 L6.4,47.9996 C3.1,47.9996 0.5,45.3996 0.5,42.1006 L0.5,6.6006 C0.5,3.3996 3.1,0.6996 6.4,0.6996 L33.1,0.4996 C36.4,0.4996 39.1,3.1006 39.1,6.3996 L39,47.9996 Z"/>
    <g transform="translate(18 27.6)">
      <mask id="b" fill="white">
        <use xlink:href="#a"/>
      </mask>
      <path fill="#FFFFFF" d="M17.6001,0.2004 C26.9331,0.2004 34.5001,7.7664 34.5001,17.0994 C34.5001,26.4334 26.9331,34.0004 17.6001,34.0004 C8.2671,34.0004 0.7001,26.4334 0.7001,17.0994 C0.7001,7.7664 8.2671,0.2004 17.6001,0.2004" mask="url(#b)"/>
    </g>
    <path stroke="#FFCD05" stroke-width="3" d="M35.3999 31.4996C42.5799 31.4996 48.3999 37.3196 48.3999 44.4996 48.3999 51.6796 42.5799 57.4996 35.3999 57.4996 28.2199 57.4996 22.3999 51.6796 22.3999 44.4996 22.3999 37.3196 28.2199 31.4996 35.3999 31.4996zM28.7002 44.4996L42.7002 44.4996M35.3999 37.6998L35.3999 51.8008M8.8999 13.4L31.5999 13.4"/>
    <path stroke="#121212" stroke-width="3" d="M8.8999,20.4996 L23.0999,20.4996"/>
  </g>
</svg>
