<svg xmlns="http://www.w3.org/2000/svg" width="80" height="80" viewBox="0 0 80 80" xmlns:xlink="http://www.w3.org/1999/xlink">
  <defs>
    <polygon id="a" points="34.3 34 .501 34 .501 .2 34.3 .2 34.3 34"/>
  </defs>
  <g fill="none" fill-rule="evenodd" transform="translate(15 16)">
    <path fill="#000000" d="M35.3,0.0002 C33.4,0.0002 31.5,0.7002 30,2.2002 L1.4,30.8002 L12,41.3992 L40.6,12.8002 C43.5,9.8992 43.5,5.1002 40.6,2.2002 C39.2,0.8002 37.2,0.0002 35.3,0.0002 M35.3,3.0002 C36.5,3.0002 37.6,3.5002 38.5,4.3002 C40.3,6.1002 40.3,8.8992 38.5,10.7002 L12,37.2002 L5.6,30.8002 L32.1,4.3002 C33,3.5002 34.1,3.0002 35.3,3.0002"/>
    <path stroke="#000000" stroke-width="3" d="M31.8 18.8L22.6 9.6M21.8996 28.7004L14.0996 21.0004"/>
    <path stroke="#000000" stroke-width="4" d="M7.0002,35.8 L0.0002,42.9" stroke-linecap="round"/>
    <g transform="translate(18 14)">
      <mask id="b" fill="white">
        <use xlink:href="#a"/>
      </mask>
      <path fill="#FFFFFF" d="M17.3996,0.2004 C26.7336,0.2004 34.2996,7.7664 34.2996,17.0994 C34.2996,26.4334 26.7336,34.0004 17.3996,34.0004 C8.0666,34.0004 0.5006,26.4334 0.5006,17.0994 C0.5006,7.7664 8.0666,0.2004 17.3996,0.2004" mask="url(#b)"/>
    </g>
    <path stroke="#FFCD05" stroke-width="3" d="M35.2004 17.8996C42.3804 17.8996 48.2004 23.7196 48.2004 30.8996 48.2004 38.0796 42.3804 43.8996 35.2004 43.8996 28.0204 43.8996 22.2004 38.0796 22.2004 30.8996 22.2004 23.7196 28.0204 17.8996 35.2004 17.8996zM39.8 24.8L30.8 35.8"/>
    <path fill="#FFCD05" d="M31.3 24.3C32.404 24.3 33.3 25.196 33.3 26.3 33.3 27.404 32.404 28.3 31.3 28.3 30.196 28.3 29.3 27.404 29.3 26.3 29.3 25.196 30.196 24.3 31.3 24.3M39.3 32.3C40.404 32.3 41.3 33.196 41.3 34.3 41.3 35.404 40.404 36.3 39.3 36.3 38.196 36.3 37.3 35.404 37.3 34.3 37.3 33.196 38.196 32.3 39.3 32.3"/>
  </g>
</svg>
