<svg xmlns="http://www.w3.org/2000/svg" width="80" height="80" viewBox="0 0 80 80" xmlns:xlink="http://www.w3.org/1999/xlink">
  <defs>
    <polygon id="a" points="0 52.2 62 52.2 62 0 0 0"/>
  </defs>
  <g fill="none" fill-rule="evenodd" transform="translate(12 13)">
    <path stroke="#121212" stroke-width="3" d="M26.1001,1.5 C39.6861,1.5 50.7001,12.514 50.7001,26.1 C50.7001,39.687 39.6861,50.7 26.1001,50.7 C12.5141,50.7 1.5001,39.687 1.5001,26.1 C1.5001,12.514 12.5141,1.5 26.1001,1.5 Z"/>
    <mask id="b" fill="white">
      <use xlink:href="#a"/>
    </mask>
    <polygon fill="#FFFFFF" points="38.3 39.3 62 39.3 62 14.7 38.3 14.7" mask="url(#b)"/>
    <path fill="#000000" d="M19.7002 31.2998C20.1002 31.2998 20.5002 31.1998 20.8002 31.0998 21.1002 30.9998 21.4002 30.7998 21.7002 30.4998 21.9002 30.2998 22.1002 29.9998 22.3002 29.5998 22.4002 29.2998 22.5002 28.9008 22.5002 28.4998 22.5002 28.0998 22.4002 27.6998 22.3002 27.4008 22.2002 27.0998 22.0002 26.7998 21.8002 26.5998 21.6002 26.4008 21.3002 26.1998 21.0002 26.0998 20.7002 25.9998 20.3002 25.9008 19.9002 25.9008 19.5002 25.9008 19.1002 25.9998 18.8002 26.0998 18.5002 26.1998 18.2002 26.4008 18.0002 26.6998 17.8002 26.9008 17.6002 27.1998 17.5002 27.4998 17.4002 27.7998 17.3002 28.1998 17.3002 28.5998 17.3002 28.9998 17.4002 29.4008 17.5002 29.6998 17.6002 29.9998 17.8002 30.2998 18.0002 30.5998 18.2002 30.7998 18.5002 30.9998 18.8002 31.0998 19.0002 31.2998 19.3002 31.2998 19.7002 31.2998L19.7002 31.2998zM19.2002 23.9008L18.7002 24.4998C19.0002 24.4008 19.3002 24.1998 19.6002 24.1998 19.9002 24.0998 20.3002 24.0998 20.7002 24.0998 21.3002 24.0998 21.8002 24.1998 22.3002 24.4008 22.8002 24.5998 23.3002 24.9008 23.7002 25.1998 24.1002 25.5998 24.4002 25.9998 24.7002 26.5998 24.9002 27.0998 25.1002 27.7998 25.1002 28.4998 25.1002 29.1998 25.0002 29.7998 24.7002 30.4008 24.5002 30.9998 24.1002 31.4998 23.7002 31.9998 23.2002 32.4008 22.7002 32.7998 22.1002 32.9998 21.5002 33.2998 20.8002 33.4008 20.0002 33.4008 19.2002 33.4008 18.5002 33.2998 17.9002 32.9998 17.3002 32.7998 16.8002 32.4008 16.3002 31.9998 15.9002 31.5998 15.5002 30.9998 15.3002 30.4008 15.1002 29.7998 15.0002 29.0998 15.0002 28.2998 15.0002 27.5998 15.1002 26.9008 15.4002 26.1998 15.7002 25.4998 16.1002 24.6998 16.7002 23.9008L20.2002 19.1998C20.3002 18.9998 20.5002 18.9008 20.7002 18.7998 20.9002 18.6998 21.2002 18.5998 21.5002 18.5998L23.7002 18.5998 19.2002 23.9008zM34.2002 25.9004C34.2002 24.7994 34.1002 24.0004 34.0002 23.2994 33.8002 22.5994 33.6002 22.0994 33.4002 21.5994 33.1002 21.2004 32.8002 20.9004 32.5002 20.7004 32.2002 20.5004 31.8002 20.5004 31.5002 20.5004 31.1002 20.5004 30.8002 20.5994 30.5002 20.7004 30.2002 20.9004 29.9002 21.2004 29.6002 21.5994 29.3002 22.0004 29.1002 22.5994 29.0002 23.2994 28.8002 24.0004 28.8002 24.9004 28.8002 25.9004 28.8002 27.0004 28.9002 27.7994 29.0002 28.5004 29.2002 29.2004 29.4002 29.7004 29.6002 30.2004 29.9002 30.5994 30.1002 30.9004 30.5002 31.0994 30.8002 31.2994 31.2002 31.2994 31.5002 31.2994 31.9002 31.2994 32.2002 31.2004 32.5002 31.0994 32.8002 30.9004 33.1002 30.5994 33.4002 30.2004 33.7002 29.7994 33.9002 29.2004 34.0002 28.5004 34.2002 27.9004 34.2002 27.0004 34.2002 25.9004M36.8002 25.9004C36.8002 27.2004 36.7002 28.2994 36.4002 29.2004 36.1002 30.0994 35.8002 30.9004 35.3002 31.5004 34.8002 32.0994 34.3002 32.5994 33.6002 32.9004 32.9002 33.2004 32.2002 33.2994 31.5002 33.2994 30.7002 33.2994 30.0002 33.2004 29.4002 32.9004 28.8002 32.5994 28.2002 32.0994 27.7002 31.5004 27.2002 30.9004 26.8002 30.0994 26.6002 29.2004 26.3002 28.2994 26.2002 27.2004 26.2002 25.9004 26.2002 24.5994 26.3002 23.5004 26.6002 22.5994 26.9002 21.7004 27.2002 20.9004 27.7002 20.2994 28.2002 19.7004 28.7002 19.2004 29.4002 18.9004 30.0002 18.5994 30.8002 18.5004 31.5002 18.5004 32.3002 18.5004 33.0002 18.5994 33.6002 18.9004 34.3002 19.2004 34.8002 19.7004 35.3002 20.2994 35.8002 20.9004 36.2002 21.7004 36.4002 22.5994 36.7002 23.5004 36.8002 24.5994 36.8002 25.9004" mask="url(#b)"/>
    <path stroke="#FFCD05" stroke-width="3" d="M53.5,20.5 L44.5,31.5" mask="url(#b)"/>
    <path fill="#FFCD05" d="M45 20C46.104 20 47 20.896 47 22 47 23.104 46.104 24 45 24 43.896 24 43 23.104 43 22 43 20.896 43.896 20 45 20M53 28C54.104 28 55 28.896 55 30 55 31.104 54.104 32 53 32 51.896 32 51 31.104 51 30 51 28.896 51.896 28 53 28" mask="url(#b)"/>
  </g>
</svg>
