<svg xmlns="http://www.w3.org/2000/svg" width="80" height="80" viewBox="0 0 80 80">
  <g fill="none" fill-rule="evenodd" transform="translate(10 18)">
    <path fill="#FFFFFF" d="M45.5,26.5 L12.5,26.5 C5.9,26.5 0.5,21.1 0.5,14.5 L0.5,12.5 C0.5,5.9 5.9,0.5 12.5,0.5 L45.5,0.5 C52.1,0.5 57.5,5.9 57.5,12.5 L57.5,14.5 C57.5,21.1 52.1,26.5 45.5,26.5"/>
    <path stroke="#FFCD05" stroke-width="3" d="M45.5,26.5 L12.5,26.5 C5.9,26.5 0.5,21.1 0.5,14.5 L0.5,12.5 C0.5,5.9 5.9,0.5 12.5,0.5 L45.5,0.5 C52.1,0.5 57.5,5.9 57.5,12.5 L57.5,14.5 C57.5,21.1 52.1,26.5 45.5,26.5 Z"/>
    <polygon fill="#FFFFFF" points="27 11 24 48 57 36"/>
    <polygon fill="#FFFFFF" points="31.2 21 44 31.5 29.7 36.8"/>
    <path fill="#121212" d="M30,18 L28,39 L47,32 L30,18 Z M32.5,23.9 L41.1,31 L31.5,34.5 L32.5,23.9 Z"/>
    <path stroke="#121212" stroke-width="3" d="M36.5,33.5 L40,43"/>
  </g>
</svg>
