<svg xmlns="http://www.w3.org/2000/svg" width="80" height="80" viewBox="0 0 80 80" xmlns:xlink="http://www.w3.org/1999/xlink">
  <defs>
    <path id="a" d="M3.2,0.2 L5.4,0.2 C7.4,0.2 8.9,1.8 8.9,3.7 L8.9,4.5 C8.9,6.4 7.4,8 5.4,8 L3.299,8 L3.1,8 L3.1,9.2 L7.3,9.2 L7.3,11.5 L3.1,11.5 L3,11.5 L3,12.901 L0.7,12.901 L0.7,5.5 L0.7,2.7 L0.7,2.5 C0.8,1.2 1.9,0.2 3.2,0.2 Z M3.1,5.7 C3.1,5.8 3.2,5.901 3.299,5.901 L5.4,5.901 C6.1,5.901 6.701,5.299 6.701,4.599 L6.701,3.8 C6.701,3.1 6.2,2.599 5.5,2.599 L3.299,2.599 C3.2,2.599 3.1,2.7 3.1,2.8 L3.1,5.7 Z"/>
  </defs>
  <g fill="none" fill-rule="evenodd" transform="translate(18 12)">
    <path stroke="#FFCD05" stroke-width="3" d="M22.5,0.5 C32.441,0.5 40.5,8.559 40.5,18.5 C40.5,28.441 32.441,36.5 22.5,36.5 C12.559,36.5 4.5,28.441 4.5,18.5 C4.5,8.559 12.559,0.5 22.5,0.5 Z"/>
    <path fill="#FFFFFF" d="M22,13 C34.15,13 44,22.85 44,35 C44,47.15 34.15,57 22,57 C9.85,57 0,47.15 0,35 C0,22.85 9.85,13 22,13"/>
    <path fill="#FFFFFF" d="M22.1001,17.7002 C31.5991,17.7002 39.3001,25.4002 39.3001,34.9002 C39.3001,44.3992 31.5991,52.0992 22.1001,52.0992 C12.6001,52.0992 4.9001,44.3992 4.9001,34.9002 C4.9001,25.4002 12.6001,17.7002 22.1001,17.7002"/>
    <path stroke="#121212" stroke-width="3" d="M22.1001,17.7002 C31.5991,17.7002 39.3001,25.4002 39.3001,34.9002 C39.3001,44.3992 31.5991,52.0992 22.1001,52.0992 C12.6001,52.0992 4.9001,44.3992 4.9001,34.9002 C4.9001,25.4002 12.6001,17.7002 22.1001,17.7002 Z"/>
    <path fill="#FFCD05" d="M21.1001,30.7998 C21.1001,30.6998 21.2001,30.5998 21.3001,30.5998 L23.5001,30.5998 C24.2001,30.5998 24.7001,31.0998 24.7001,31.7998 L24.7001,32.5998 C24.7001,33.2998 24.1001,33.9008 23.4001,33.9008 L21.3001,33.9008 C21.2001,33.9008 21.1001,33.7998 21.1001,33.6998 L21.1001,30.7998 Z M21.1001,39.4998 L25.3001,39.4998 L25.3001,37.1998 L21.1001,37.1998 L21.1001,35.9998 L21.3001,35.9998 L23.4001,35.9998 C25.4001,35.9998 26.9001,34.4008 26.9001,32.4998 L26.9001,31.6998 C26.9001,29.7998 25.4001,28.1998 23.4001,28.1998 L21.2001,28.1998 C19.9001,28.1998 18.8001,29.1998 18.7001,30.4998 L18.7001,30.6998 L18.7001,33.4998 L18.7001,40.9008 L21.0001,40.9008 L21.0001,39.4998 L21.1001,39.4998 Z"/>
    <g transform="translate(18 28)">
      <mask id="b" fill="white">
        <use xlink:href="#a"/>
      </mask>
      <polygon fill="#FFCD05" points="-5.1 19 15 19 15 -5.7 -5.1 -5.7" mask="url(#b)"/>
    </g>
  </g>
</svg>
