<svg xmlns="http://www.w3.org/2000/svg" width="80" height="80" viewBox="0 0 80 80">
  <g fill="none" fill-rule="evenodd" stroke-width="3" transform="translate(17 9)">
    <path stroke="#121212" d="M40 43.4525L6 43.4525C3 43.4525.5 40.9525.5 37.9525L.5 20.9525C.5 17.9525 3 15.4525 6 15.4525L40 15.4525C43 15.4525 45.5 17.9525 45.5 20.9525L45.5 37.9525C45.5 40.9525 43 43.4525 40 43.4525zM35.5 21.4525L35.5 36.4525M8.5 33.4525L19.5 33.4525"/>
    <path stroke="#FFCD05" d="M22.5,47.9525 L22.5,55.9525"/>
    <polyline stroke="#FFCD05" points="16.5 52.953 22.5 57.953 28.5 52.953"/>
    <path stroke="#FFCD05" d="M22.5,10.9525 L22.5,2.9525"/>
    <polyline stroke="#FFCD05" points="28.5 5.952 22.5 .953 16.5 5.952"/>
  </g>
</svg>
