<svg xmlns="http://www.w3.org/2000/svg" width="80" height="80" viewBox="0 0 80 80">
  <g fill="none" fill-rule="evenodd" stroke-width="3" transform="translate(17 11)">
    <path stroke="#121212" d="M5.6033 54L35.1033 54C37.2033 54 39.0033 52.3 39.0033 50.1L39.0033 27.1 39.0033 13C39.0033 11.1 37.4033 9.5 35.5033 9.5L20.0033 9.5 4.8033 9.5C2.5033 9.5.5033 11.4.5033 13.8L.5033 48.9C.4033 51.7 2.7033 54 5.6033 54zM7.803 43.5996L20.903 43.4996"/>
    <path stroke="#FFCD05" d="M7.803 36.5996L31.903 36.4996M9.9031.5L39.1031.5C43.4031.5 46.9031 4 46.9031 8.3L46.9031 43.5"/>
  </g>
</svg>
